<svg version="1.1" viewBox="0.0 0.0 1140.0 360.0" fill="none" stroke="none" stroke-linecap="square" stroke-miterlimit="10" xmlns:xlink="http://www.w3.org/1999/xlink" xmlns="http://www.w3.org/2000/svg"><clipPath id="p.0"><path d="m0 0l1140.0 0l0 360.0l-1140.0 0l0 -360.0z" clip-rule="nonzero"/></clipPath><g clip-path="url(#p.0)"><path fill="#ff0000" d="m0 0l1140.0 0l0 360.0l-1140.0 0z" fill-rule="evenodd"/><path fill="#000000" fill-opacity="0.0" d="m142.91077 67.34908l861.57477 0l0 215.18109l-861.57477 0z" fill-rule="evenodd"/><path fill="#ffffff" d="m445.057 200.38533q-13.0625 0 -22.859375 -5.625q-9.78125 -5.640625 -15.03125 -16.140625q-5.25 -10.5 -5.25 -24.578125q0 -14.078125 5.25 -24.5q5.25 -10.437492 15.03125 -16.062492q9.796875 -5.640625 22.859375 -5.640625q8.453125 0 15.875 2.5q7.421875 2.484375 13.1875 7.234375q1.65625 1.265625 2.296875 2.6875q0.640625 1.40625 0.640625 3.453125q0 2.8125 -1.546875 4.7343674q-1.53125 1.921875 -3.703125 1.921875q-2.5625 0 -5.25 -1.796875q-5.5 -4.0937424 -10.234375 -5.6874924q-4.734375 -1.609375 -10.5 -1.609375q-13.3125 0 -20.15625 8.328117q-6.84375 8.3125 -6.84375 24.4375q0 16.265625 6.84375 24.59375q6.84375 8.3125 20.15625 8.3125q5.5 0 10.171875 -1.65625q4.671875 -1.671875 10.5625 -5.640625q1.28125 -0.78125 2.5625 -1.28125q1.28125 -0.515625 2.6875 -0.515625q2.171875 0 3.703125 1.921875q1.546875 1.921875 1.546875 4.734375q0 1.921875 -0.640625 3.390625q-0.640625 1.46875 -2.296875 2.75q-5.765625 4.734375 -13.1875 7.234375q-7.421875 2.5 -15.875 2.5zm126.5965 -92.03124q3.578125 0 5.75 2.234375q2.1875 2.234375 2.1875 5.953125l0 75.78124q0 3.578125 -2.046875 5.625q-2.046875 2.046875 -5.375 2.046875q-3.328125 0 -5.25 -2.046875q-1.921875 -2.046875 -1.921875 -5.625l0 -52.734375l-21.765625 41.203125q-1.53125 2.828125 -3.328125 4.171875q-1.796875 1.34375 -4.21875 1.34375q-2.4375 0 -4.234375 -1.28125q-1.78125 -1.28125 -3.3125 -4.234375l-21.890594 -40.578125l0 52.109375q0 3.453125 -1.984375 5.5625q-1.984375 2.109375 -5.3125 2.109375q-3.328125 0 -5.25 -2.046875q-1.921875 -2.046875 -1.921875 -5.625l0 -75.78124q0 -3.71875 2.109375 -5.953125q2.109375 -2.234375 5.703125 -2.234375q4.984375 0 7.796875 5.5l28.421844 54.140617l28.28125 -54.140617q2.828125 -5.5 7.5625 -5.5zm35.71051 91.64062q-3.71875 0 -5.953125 -2.234375q-2.234375 -2.25 -2.234375 -6.078125l0 -74.89062q0 -3.703125 2.109375 -5.75q2.109375 -2.046875 5.8125 -2.046875l31.5 0q14.453125 0 22.515625 7.234375q8.078125 7.21875 8.078125 20.281242q0 13.0625 -8.078125 20.359375q-8.0625 7.28125 -22.515625 7.28125l-22.921875 0l0 27.53125q0 3.828125 -2.234375 6.078125q-2.234375 2.234375 -6.078125 2.234375zm29.1875 -48.515625q17.015625 0 17.015625 -14.84375q0 -14.843742 -17.015625 -14.843742l-20.875 0l0 29.687492l20.875 0zm76.66754 48.390625q-3.84375 0 -6.09375 -2.234375q-2.234375 -2.25 -2.234375 -5.953125l0 -69.12499l-23.28125 0q-7.6875 0 -7.6875 -6.78125q0 -6.78125 7.6875 -6.78125l63.09375 0q7.6875 0 7.6875 6.78125q0 6.78125 -7.6875 6.78125l-23.296875 0l0 69.12499q0 3.703125 -2.234375 5.953125q-2.234375 2.234375 -5.953125 2.234375z" fill-rule="nonzero"/></g></svg>