<svg version="1.1" viewBox="0.0 0.0 1140.0 360.0" fill="none" stroke="none" stroke-linecap="square" stroke-miterlimit="10" xmlns:xlink="http://www.w3.org/1999/xlink" xmlns="http://www.w3.org/2000/svg"><clipPath id="p.0"><path d="m0 0l1140.0 0l0 360.0l-1140.0 0l0 -360.0z" clip-rule="nonzero"/></clipPath><g clip-path="url(#p.0)"><path fill="#9900ff" d="m0 0l1140.0 0l0 360.0l-1140.0 0z" fill-rule="evenodd"/><g filter="url(#shadowFilter-p.1)"><use xlink:href="#p.1" transform="matrix(1.0 0.0 0.0 1.0 0.0 2.0)"/></g><defs><filter id="shadowFilter-p.1" filterUnits="userSpaceOnUse"><feGaussianBlur in="SourceAlpha" stdDeviation="2.0" result="blur"/><feComponentTransfer in="blur" color-interpolation-filters="sRGB"><feFuncR type="linear" slope="0" intercept="0.0"/><feFuncG type="linear" slope="0" intercept="0.0"/><feFuncB type="linear" slope="0" intercept="0.0"/><feFuncA type="linear" slope="0.5" intercept="0"/></feComponentTransfer></filter></defs><g id="p.1"><path fill="#000000" fill-opacity="0.0" d="m101.54068 63.540684l971.18115 0l0 217.41733l-971.18115 0z" fill-rule="evenodd"/><path fill="#ffffff" d="m168.1347 165.56006q-9.78125 0 -17.125 -4.21875q-7.34375 -4.21875 -11.28125 -12.09375q-3.9375 -7.875 -3.9375 -18.4375q0 -10.562508 3.9375 -18.375008q3.9375 -7.828125 11.28125 -12.046875q7.34375 -4.234375 17.125 -4.234375q6.34375 0 11.90625 1.875q5.578125 1.875 9.890625 5.421875q1.25 0.96875 1.71875 2.03125q0.484375 1.046875 0.484375 2.578125q0 2.109375 -1.15625 3.5625q-1.140625 1.4375 -2.78125 1.4375q-1.90625 0 -3.9375 -1.34375q-4.125 -3.078125 -7.671875 -4.28125q-3.546875 -1.203125 -7.875 -1.203125q-9.984375 0 -15.125 6.25q-5.125 6.234375 -5.125 18.328133q0 12.1875 5.125 18.4375q5.140625 6.234375 15.125 6.234375q4.125 0 7.625 -1.25q3.515625 -1.25 7.921875 -4.21875q0.96875 -0.578125 1.921875 -0.953125q0.96875 -0.390625 2.015625 -0.390625q1.640625 0 2.78125 1.4375q1.15625 1.4375 1.15625 3.546875q0 1.453125 -0.484375 2.5625q-0.46875 1.09375 -1.71875 2.046875q-4.3125 3.5625 -9.890625 5.4375q-5.5625 1.859375 -11.90625 1.859375zm40.994217 -0.28125q-2.78125 0 -4.46875 -1.71875q-1.671875 -1.734375 -1.671875 -4.515625l0 -56.359383q0 -2.78125 1.671875 -4.453125q1.6875 -1.6875 4.46875 -1.6875q2.875 0 4.5625 1.6875q1.6875 1.671875 1.6875 4.453125l0 56.359383q0 2.78125 -1.6875 4.515625q-1.6875 1.71875 -4.5625 1.71875zm70.08537 -65.56251q1.53125 -3.265625 5.078125 -3.265625q2.40625 0 4.328125 1.53125q1.921875 1.53125 1.921875 3.84375q0 1.046875 -0.578125 2.390625l-26.59375 57.218758q-0.859375 1.828125 -2.640625 2.84375q-1.78125 1.0 -3.796875 1.0q-2.0156403 0 -3.7968903 -1.0q-1.765625 -1.015625 -2.625 -2.84375l-26.5 -57.218758q-0.578125 -1.34375 -0.578125 -2.296875q0 -2.40625 1.96875 -3.9375q1.96875 -1.53125 4.46875 -1.53125q1.625 0 3.015625 0.8125q1.390625 0.8125 2.171875 2.453125l22.07814 49.046883l22.078125 -49.046883zm25.4346 65.56251q-2.78125 0 -4.46875 -1.71875q-1.671875 -1.734375 -1.671875 -4.515625l0 -56.359383q0 -2.78125 1.671875 -4.453125q1.6875 -1.6875 4.46875 -1.6875q2.875 0 4.5625 1.6875q1.6875 1.671875 1.6875 4.453125l0 56.359383q0 2.78125 -1.6875 4.515625q-1.6875 1.71875 -4.5625 1.71875zm26.694733 -0.578125q-2.78125 0 -4.328125 -1.53125q-1.53125 -1.546875 -1.53125 -4.234375l0 -56.250008q0 -2.78125 1.671875 -4.453125q1.6875 -1.6875 4.46875 -1.6875q2.875 0 4.5625 1.6875q1.6875 1.671875 1.6875 4.453125l0 51.843758l26.96872 0q5.765625 0 5.765625 5.078125q0 5.09375 -5.765625 5.09375l-33.49997 0zm79.38971 0q-2.78125 0 -4.375 -1.53125q-1.578125 -1.546875 -1.578125 -4.328125l0 -55.968758q0 -2.78125 1.578125 -4.3125q1.59375 -1.546875 4.375 -1.546875l34.65625 0q2.78125 0 4.3125 1.25q1.546875 1.25 1.546875 3.5625q0 2.390625 -1.546875 3.6875q-1.53125 1.296875 -4.3125 1.296875l-28.515625 0l0 18.625l26.59375 0q2.78125 0 4.3125 1.25q1.546875 1.25 1.546875 3.6406326q0 2.3125 -1.546875 3.5625q-1.53125 1.25 -4.3125 1.25l-26.59375 0l0 19.765625l28.515625 0q2.78125 0 4.3125 1.296875q1.546875 1.296875 1.546875 3.703125q0 2.296875 -1.546875 3.546875q-1.53125 1.25 -4.3125 1.25l-34.65625 0zm101.85651 -68.15626q2.6875 0 4.265625 1.6875q1.59375 1.671875 1.59375 4.453125l0 56.359383q0 2.78125 -1.640625 4.515625q-1.625 1.71875 -4.21875 1.71875q-3.0781555 0 -4.7031555 -2.203125l-35.046875 -45.609383l0 41.578133q0 2.78125 -1.53125 4.515625q-1.53125 1.71875 -4.21875 1.71875q-2.6875 0 -4.234375 -1.71875q-1.53125 -1.734375 -1.53125 -4.515625l0 -56.359383q0 -2.78125 1.625 -4.453125q1.640625 -1.6875 4.328125 -1.6875q2.96875 0 4.609375 2.203125l34.9375 45.406258l0 -41.468758q0 -2.78125 1.578125 -4.453125q1.59375 -1.6875 4.1875305 -1.6875zm71.993164 31.578133q2.21875 0 3.5625 1.296875q1.34375 1.296875 1.34375 3.40625l0 20.640625q0 4.421875 -1.15625 6.25q-1.15625 1.8125 -4.703125 2.96875q-3.84375 1.34375 -8.9375 2.109375q-5.078125 0.765625 -9.78125 0.765625q-10.46875 0 -18.15625 -4.125q-7.671875 -4.125 -11.75 -11.953125q-4.078125 -7.828125 -4.078125 -18.671875q0 -10.656258 4.078125 -18.468758q4.078125 -7.828125 11.5625 -12.0q7.484375 -4.1875 17.671875 -4.1875q13.53125 0 22.171875 7.296875q1.15625 1.0625 1.671875 2.125q0.53125 1.046875 0.53125 2.484375q0 2.109375 -1.15625 3.5625q-1.140625 1.4375 -2.78125 1.4375q-1.046875 0 -1.921875 -0.328125q-0.859375 -0.34375 -2.0 -1.125q-4.234375 -2.96875 -7.890625 -4.171875q-3.640625 -1.203125 -8.25 -1.203125q-10.453125 0 -15.78125 6.203125q-5.328125 6.1875 -5.328125 18.375008q0 24.96875 21.875 24.96875q6.53125 0 13.0625 -1.828125l0 -17.0l-10.84375 0q-2.3125 0 -3.609375 -1.140625q-1.296875 -1.15625 -1.296875 -3.265625q0 -2.109375 1.296875 -3.265625q1.296875 -1.15625 3.609375 -1.15625l16.984375 0zm24.961731 37.15625q-2.78125 0 -4.46875 -1.71875q-1.671875 -1.734375 -1.671875 -4.515625l0 -56.359383q0 -2.78125 1.671875 -4.453125q1.6875 -1.6875 4.46875 -1.6875q2.875 0 4.5625 1.6875q1.6875 1.671875 1.6875 4.453125l0 56.359383q0 2.78125 -1.6875 4.515625q-1.6875 1.71875 -4.5625 1.71875zm72.10101 -68.73438q2.6875 0 4.265625 1.6875q1.59375 1.671875 1.59375 4.453125l0 56.359383q0 2.78125 -1.640625 4.515625q-1.625 1.71875 -4.21875 1.71875q-3.078125 0 -4.703125 -2.203125l-35.046875 -45.609383l0 41.578133q0 2.78125 -1.53125 4.515625q-1.53125 1.71875 -4.21875 1.71875q-2.6875 0 -4.234375 -1.71875q-1.53125 -1.734375 -1.53125 -4.515625l0 -56.359383q0 -2.78125 1.625 -4.453125q1.640625 -1.6875 4.328125 -1.6875q2.96875 0 4.609375 2.203125l34.9375 45.406258l0 -41.468758q0 -2.78125 1.578125 -4.453125q1.59375 -1.6875 4.1875 -1.6875zm26.399475 68.15626q-2.78125 0 -4.375 -1.53125q-1.578125 -1.546875 -1.578125 -4.328125l0 -55.968758q0 -2.78125 1.578125 -4.3125q1.59375 -1.546875 4.375 -1.546875l34.65625 0q2.78125 0 4.3125 1.25q1.546875 1.25 1.546875 3.5625q0 2.390625 -1.546875 3.6875q-1.53125 1.296875 -4.3125 1.296875l-28.515625 0l0 18.625l26.59375 0q2.78125 0 4.3125 1.25q1.546875 1.25 1.546875 3.6406326q0 2.3125 -1.546875 3.5625q-1.53125 1.25 -4.3125 1.25l-26.59375 0l0 19.765625l28.515625 0q2.78125 0 4.3125 1.296875q1.546875 1.296875 1.546875 3.703125q0 2.296875 -1.546875 3.546875q-1.53125 1.25 -4.3125 1.25l-34.65625 0zm56.543945 0q-2.78125 0 -4.375 -1.53125q-1.578125 -1.546875 -1.578125 -4.328125l0 -55.968758q0 -2.78125 1.578125 -4.3125q1.59375 -1.546875 4.375 -1.546875l34.65625 0q2.78125 0 4.3125 1.25q1.546875 1.25 1.546875 3.5625q0 2.390625 -1.546875 3.6875q-1.53125 1.296875 -4.3125 1.296875l-28.515625 0l0 18.625l26.59375 0q2.78125 0 4.3125 1.25q1.546875 1.25 1.546875 3.6406326q0 2.3125 -1.546875 3.5625q-1.53125 1.25 -4.3125 1.25l-26.59375 0l0 19.765625l28.515625 0q2.78125 0 4.3125 1.296875q1.546875 1.296875 1.546875 3.703125q0 2.296875 -1.546875 3.546875q-1.53125 1.25 -4.3125 1.25l-34.65625 0zm104.731445 -7.78125q1.15625 1.734375 1.15625 3.359375q0 2.21875 -1.78125 3.65625q-1.765625 1.4375 -4.171875 1.4375q-1.53125 0 -2.9375 -0.71875q-1.390625 -0.71875 -2.34375 -2.15625l-12.765625 -19.390625q-1.921875 -3.078125 -4.078125 -4.328125q-2.15625 -1.25 -5.625 -1.25l-9.40625 0l0 21.515625q0 2.875 -1.640625 4.5625q-1.625 1.671875 -4.40625 1.671875q-2.78125 0 -4.46875 -1.671875q-1.671875 -1.6875 -1.671875 -4.5625l0 -56.171883q0 -2.78125 1.578125 -4.3125q1.59375 -1.546875 4.375 -1.546875l24.0 0q11.515625 0 17.515625 5.140625q6.0 5.140625 6.0 14.828125q0 7.875 -4.46875 12.921883q-4.453125 5.03125 -12.609375 6.484375q2.78125 0.671875 4.890625 2.40625q2.109375 1.71875 4.125 4.78125l8.734375 13.34375zm-25.921875 -28.890625q7.015625 0 10.28125 -2.6406326q3.265625 -2.640625 3.265625 -8.109375q0 -5.5625 -3.265625 -8.109375q-3.265625 -2.546875 -10.28125 -2.546875l-16.125 0l0 21.406258l16.125 0zm44.641846 37.25q-2.78125 0 -4.46875 -1.71875q-1.671875 -1.734375 -1.671875 -4.515625l0 -56.359383q0 -2.78125 1.671875 -4.453125q1.6875 -1.6875 4.46875 -1.6875q2.875 0 4.5625 1.6875q1.6875 1.671875 1.6875 4.453125l0 56.359383q0 2.78125 -1.6875 4.515625q-1.6875 1.71875 -4.5625 1.71875zm72.10095 -68.73438q2.6875 0 4.265625 1.6875q1.59375 1.671875 1.59375 4.453125l0 56.359383q0 2.78125 -1.640625 4.515625q-1.625 1.71875 -4.21875 1.71875q-3.078125 0 -4.703125 -2.203125l-35.046875 -45.609383l0 41.578133q0 2.78125 -1.53125 4.515625q-1.53125 1.71875 -4.21875 1.71875q-2.6875 0 -4.234375 -1.71875q-1.53125 -1.734375 -1.53125 -4.515625l0 -56.359383q0 -2.78125 1.625 -4.453125q1.640625 -1.6875 4.328125 -1.6875q2.96875 0 4.609375 2.203125l34.9375 45.406258l0 -41.468758q0 -2.78125 1.578125 -4.453125q1.59375 -1.6875 4.1875 -1.6875zm71.993225 31.578133q2.21875 0 3.5625 1.296875q1.34375 1.296875 1.34375 3.40625l0 20.640625q0 4.421875 -1.15625 6.25q-1.15625 1.8125 -4.703125 2.96875q-3.84375 1.34375 -8.937439 2.109375q-5.078125 0.765625 -9.78125 0.765625q-10.46875 0 -18.15625 -4.125q-7.671875 -4.125 -11.75 -11.953125q-4.078125 -7.828125 -4.078125 -18.671875q0 -10.656258 4.078125 -18.468758q4.078125 -7.828125 11.5625 -12.0q7.484375 -4.1875 17.671875 -4.1875q13.531189 0 22.171814 7.296875q1.15625 1.0625 1.671875 2.125q0.53125 1.046875 0.53125 2.484375q0 2.109375 -1.15625 3.5625q-1.140625 1.4375 -2.78125 1.4375q-1.046875 0 -1.921875 -0.328125q-0.859375 -0.34375 -2.0 -1.125q-4.234375 -2.96875 -7.890564 -4.171875q-3.640625 -1.203125 -8.25 -1.203125q-10.453125 0 -15.78125 6.203125q-5.328125 6.1875 -5.328125 18.375008q0 24.96875 21.875 24.96875q6.53125 0 13.062439 -1.828125l0 -17.0l-10.843689 0q-2.3125 0 -3.609375 -1.140625q-1.296875 -1.15625 -1.296875 -3.265625q0 -2.109375 1.296875 -3.265625q1.296875 -1.15625 3.609375 -1.15625l16.984314 0z" fill-rule="nonzero"/></g></g></svg>