<svg version="1.1" viewBox="0.0 0.0 1140.0 360.0" fill="none" stroke="none" stroke-linecap="square" stroke-miterlimit="10" xmlns:xlink="http://www.w3.org/1999/xlink" xmlns="http://www.w3.org/2000/svg"><clipPath id="p.0"><path d="m0 0l1140.0 0l0 360.0l-1140.0 0l0 -360.0z" clip-rule="nonzero"/></clipPath><g clip-path="url(#p.0)"><path fill="#1155cc" d="m0 0l1140.0 0l0 360.0l-1140.0 0z" fill-rule="evenodd"/><path fill="#000000" fill-opacity="0.0" d="m119.75328 58.322834l901.2598 0l0 229.38582l-901.2598 0z" fill-rule="evenodd"/><path fill="#ffffff" d="m564.2894 167.64034q-0.0625 -2.25 -0.0625 -3.375q0 -6.625 1.875 -11.4375q1.375 -3.625 4.4375 -7.3125q2.25 -2.6875 8.09375 -7.84375q5.84375 -5.15625 7.59375 -8.21875q1.75 -3.0624924 1.75 -6.6874924q0 -6.5625 -5.125 -11.53125q-5.125 -4.96875 -12.5625 -4.96875q-7.1875 0 -12.0 4.5q-4.8125 4.5 -6.3125 14.0625l-11.5625 -1.375q1.5625 -12.8125 9.28125 -19.625q7.71875 -6.8125 20.40625 -6.8125q13.4375 0 21.4375 7.3125q8.0 7.3125 8.0 17.6875q0 5.9999924 -2.8125 11.062492q-2.8125 5.0625 -11.0 12.3125q-5.5 4.875 -7.1875 7.1875q-1.6875 2.3125 -2.5 5.3125q-0.8125 3.0 -0.9375 9.75l-10.8125 0zm-0.6875 22.5625l0 -12.8125l12.8125 0l0 12.8125l-12.8125 0z" fill-rule="nonzero"/></g></svg>