<svg version="1.1" viewBox="0.0 0.0 1140.0 360.0" fill="none" stroke="none" stroke-linecap="square" stroke-miterlimit="10" xmlns:xlink="http://www.w3.org/1999/xlink" xmlns="http://www.w3.org/2000/svg"><clipPath id="p.0"><path d="m0 0l1140.0 0l0 360.0l-1140.0 0l0 -360.0z" clip-rule="nonzero"/></clipPath><g clip-path="url(#p.0)"><path fill="#073763" d="m0 0l1140.0 0l0 360.0l-1140.0 0z" fill-rule="evenodd"/><path fill="#000000" fill-opacity="0.0" d="m119.75328 58.322834l901.2598 0l0 229.38582l-901.2598 0z" fill-rule="evenodd"/><path fill="#ffffff" d="m195.53944 160.76534l11.4375 -1.0q0.8125 6.875 3.78125 11.28125q2.96875 4.40625 9.21875 7.125q6.25 2.71875 14.0625 2.71875q6.9375 0 12.25 -2.0625q5.3125 -2.0625 7.90625 -5.65625q2.5937653 -3.59375 2.5937653 -7.84375q0 -4.3125 -2.5000153 -7.53125q-2.5 -3.21875 -8.25 -5.40625q-3.6875 -1.4375 -16.3125 -4.46875q-12.625 -3.03125 -17.6875 -5.71875q-6.5625 -3.4375 -9.78125 -8.53125q-3.21875 -5.09375 -3.21875 -11.406242q0 -6.9375 3.9375 -12.96875q3.9375 -6.03125 11.5 -9.15625q7.5625 -3.125 16.8125 -3.125q10.1875 0 17.96875 3.28125q7.7812653 3.28125 11.968765 9.65625q4.1875 6.375 4.5 14.4375l-11.625015 0.875q-0.9375 -8.6875 -6.34375 -13.125q-5.40625 -4.4375 -15.96875 -4.4375q-11.0 0 -16.03125 4.03125q-5.03125 4.03125 -5.03125 9.71875q0 4.9375 3.5625 8.124992q3.5 3.1875 18.28125 6.53125q14.78125 3.34375 20.28125 5.84375q8.000015 3.6875 11.812515 9.34375q3.8125 5.65625 3.8125 13.03125q0 7.3125 -4.1875 13.78125q-4.1875 6.46875 -12.031265 10.0625q-7.84375 3.59375 -17.65625 3.59375q-12.4375 0 -20.84375 -3.625q-8.40625 -3.625 -13.1875 -10.90625q-4.78125 -7.28125 -5.03125 -16.46875zm88.062515 29.4375l0 -91.62499l11.25 0l0 32.874992q7.875 -9.124992 19.875 -9.124992q7.375 0 12.8125 2.90625q5.4375 2.9062424 7.78125 8.031242q2.34375 5.125 2.34375 14.875l0 42.0625l-11.25 0l0 -42.0625q0 -8.4375 -3.65625 -12.28125q-3.65625 -3.84375 -10.34375 -3.84375q-5.0 0 -9.40625 2.59375q-4.40625 2.59375 -6.28125 7.03125q-1.875 4.4375 -1.875 12.25l0 36.3125l-11.25 0zm71.25 -78.68749l0 -12.9375l11.25 0l0 12.9375l-11.25 0zm0 78.68749l0 -66.37499l11.25 0l0 66.37499l-11.25 0zm31.0625 0l0 -57.625l-9.9375 0l0 -8.749992l9.9375 0l0 -7.0625q0 -6.6875 1.1875 -9.9375q1.625 -4.375 5.71875 -7.09375q4.09375 -2.71875 11.46875 -2.71875q4.75 0 10.5 1.125l-1.6875 9.8125q-3.5 -0.625 -6.625 -0.625q-5.125 0 -7.25 2.1875q-2.125 2.1875 -2.125 8.1875l0 6.125l12.9375 0l0 8.749992l-12.9375 0l0 57.625l-11.1875 0zm57.4375 -10.0625l1.625 9.9375q-4.75 1.0 -8.5 1.0q-6.125 0 -9.5 -1.9375q-3.375 -1.9375 -4.75 -5.09375q-1.375 -3.15625 -1.375 -13.28125l0 -38.1875l-8.25 0l0 -8.749992l8.25 0l0 -16.4375l11.1875 -6.75l0 23.1875l11.3125 0l0 8.749992l-11.3125 0l0 38.8125q0 4.8125 0.59375 6.1875q0.59375 1.375 1.9375 2.1875q1.34375 0.8125 3.84375 0.8125q1.875 0 4.9375 -0.4375zm42.375 -23.125q0 -18.4375 10.25 -27.3125q8.5625 -7.3749924 20.87497 -7.3749924q13.6875 0 22.375 8.968742q8.6875 8.96875 8.6875 24.78125q0 12.8125 -3.84375 20.15625q-3.84375 7.34375 -11.1875 11.40625q-7.34375 4.0625 -16.03125 4.0625q-13.9374695 0 -22.53122 -8.9375q-8.59375 -8.9375 -8.59375 -25.75zm11.5625 0q0 12.75 5.5625 19.09375q5.5625 6.34375 13.9999695 6.34375q8.375 0 13.9375 -6.375q5.5625 -6.375 5.5625 -19.4375q0 -12.3125 -5.59375 -18.65625q-5.59375 -6.34375 -13.90625 -6.34375q-8.4374695 0 -13.9999695 6.3125q-5.5625 6.3125 -5.5625 19.0625zm63.68747 33.1875l0 -66.37499l10.125 0l0 10.062492q3.875 -7.0624924 7.15625 -9.312492q3.28125 -2.25 7.21875 -2.25q5.6875 0 11.5625 3.625l-3.875 10.437492q-4.125 -2.4375 -8.25 -2.4375q-3.6875 0 -6.625 2.21875q-2.9375 2.21875 -4.1875 6.15625q-1.875 6.0 -1.875 13.125l0 34.75l-11.25 0zm81.8125 0l0 -91.62499l12.125 0l0 91.62499l-12.125 0zm32.0625 0l0 -66.37499l10.125 0l0 9.437492q7.3125 -10.937492 21.125 -10.937492q6.0 0 11.03125 2.15625q5.03125 2.15625 7.53125 5.6562424q2.5 3.5 3.5 8.3125q0.625 3.125 0.625 10.9375l0 40.8125l-11.25 0l0 -40.375q0 -6.875 -1.3125 -10.28125q-1.3125 -3.40625 -4.65625 -5.4375q-3.34375 -2.03125 -7.84375 -2.03125q-7.1875 0 -12.40625 4.5625q-5.21875 4.5625 -5.21875 17.3125l0 36.25l-11.25 0zm66.6875 -19.8125l11.125 -1.75q0.9375 6.6875 5.21875 10.25q4.28125 3.5625 11.96875 3.5625q7.75 0 11.5 -3.15625q3.75 -3.15625 3.75 -7.40625q0 -3.8125 -3.3125 -6.0q-2.3125 -1.5 -11.5 -3.8125q-12.375 -3.125 -17.15625 -5.40625q-4.78125 -2.28125 -7.25 -6.3125q-2.46875 -4.03125 -2.46875 -8.90625q0 -4.4375 2.03125 -8.21875q2.03125 -3.78125 5.53125 -6.2812424q2.625 -1.9375 7.15625 -3.28125q4.53125 -1.34375 9.71875 -1.34375q7.8125 0 13.71875 2.25q5.90625 2.25 8.71875 6.0937424q2.8125 3.84375 3.875 10.28125l-11.0 1.5q-0.75 -5.125 -4.34375 -8.0q-3.59375 -2.875 -10.15625 -2.875q-7.75 0 -11.0625 2.5625q-3.3125 2.5625 -3.3125 6.0q0 2.1875 1.375 3.9375q1.375 1.8125 4.3125 3.0q1.6875 0.625 9.9375 2.875q11.9375 3.1875 16.65625 5.21875q4.71875 2.03125 7.40625 5.90625q2.6875 3.875 2.6875 9.625q0 5.625 -3.28125 10.59375q-3.28125 4.96875 -9.46875 7.6875q-6.1875 2.71875 -14.0 2.71875q-12.9375 0 -19.71875 -5.375q-6.78125 -5.375 -8.65625 -15.9375zm113.9375 -1.5625l11.625 1.4375q-2.75 10.1875 -10.1875 15.8125q-7.4375 5.625 -19.0 5.625q-14.5625 0 -23.09375 -8.96875q-8.53125 -8.96875 -8.53125 -25.15625q0 -16.75 8.625 -26.0q8.625 -9.249992 22.375 -9.249992q13.3125 0 21.75 9.062492q8.4375 9.0625 8.4375 25.5q0 1.0 -0.0625 3.0l-49.5 0q0.625 10.9375 6.1875 16.75q5.5625 5.8125 13.875 5.8125q6.1875 0 10.5625 -3.25q4.375 -3.25 6.9375 -10.375zm-36.9375 -18.1875l37.0625 0q-0.75 -8.375 -4.25 -12.5625q-5.375 -6.5 -13.9375 -6.5q-7.75 0 -13.03125 5.1875q-5.28125 5.1875 -5.84375 13.875zm62.5625 39.5625l0 -66.37499l10.125 0l0 10.062492q3.875 -7.0624924 7.15625 -9.312492q3.28125 -2.25 7.21875 -2.25q5.6875 0 11.5625 3.625l-3.875 10.437492q-4.125 -2.4375 -8.25 -2.4375q-3.6875 0 -6.625 2.21875q-2.9375 2.21875 -4.1875 6.15625q-1.875 6.0 -1.875 13.125l0 34.75l-11.25 0zm67.3125 -10.0625l1.625 9.9375q-4.75 1.0 -8.5 1.0q-6.125 0 -9.5 -1.9375q-3.375 -1.9375 -4.75 -5.09375q-1.375 -3.15625 -1.375 -13.28125l0 -38.1875l-8.25 0l0 -8.749992l8.25 0l0 -16.4375l11.1875 -6.75l0 23.1875l11.3125 0l0 8.749992l-11.3125 0l0 38.8125q0 4.8125 0.59375 6.1875q0.59375 1.375 1.9375 2.1875q1.34375 0.8125 3.84375 0.8125q1.875 0 4.9375 -0.4375z" fill-rule="nonzero"/></g></svg>